# xmcd
#
# Track frame offsets:
#        150
#        22946
#        45449
#        67918
#        89336
#        111698
#        117265
#        136845
#        159826
#        179663
#        195559
#        224970
#        247655
#        263441
#
# Disc length: 3609 seconds
#
# Revision: 0
# Processed by: cddbd v1.5.1PL2 Copyright (c) Steve Scherf et al.
# Submitted via: ExactAudioCopy v0.95b3
#
DISCID=bc0e170e
DTITLE=Dan Fordham - DNA make up of a writer
DYEAR=1900
DGENRE=
TTITLE0=What It Is
TTITLE1=Drug Free
TTITLE2=No Reason To Cry
TTITLE3=The 21st Century
TTITLE4=My Baby
TTITLE5=DNA
TTITLE6=I Wanna Go Home
TTITLE7=4-Ever Yours
TTITLE8=Talkin' 2 Yourself
TTITLE9=The Real Deal
TTITLE10=Summers Of My Life
TTITLE11=Give A Little
TTITLE12=Isaiah Speaks
TTITLE13=Start Again
EXTD=
EXTT0=
EXTT1=
EXTT2=
EXTT3=
EXTT4=
EXTT5=
EXTT6=
EXTT7=
EXTT8=
EXTT9=
EXTT10=
EXTT11=
EXTT12=
EXTT13=
PLAYORDER=
